#!OML:ASF F:\VICON\USERDATA\INSTALL\SteveWalk\SteveWalk.ASF
:FULLY-SPECIFIED
:DEGREES
106
root 0.262537 16.2454 -21.2069 18.0609 7.38168 -1.95321
lowerback -14.9849 -1.11811 0.988356
upperback -4.89041 -1.73147 2.9371
thorax 3.28334 -0.842169 2.22007
lowerneck -5.09685 -1.8902 -0.0292873
upperneck 9.64583 -2.45227 -0.861212
head 4.04746 -1.25153 -0.406072
rclavicle -8.99501e-015 1.59028e-014
rhumerus -53.0828 -37.4751 -51.8891
rradius 15.6897
rwrist 27.7225
rhand -13.0617 -34.7833
rfingers 7.12502
rthumb 13.0337 -64.3561
lclavicle -8.99501e-015 1.59028e-014
lhumerus -31.4005 -0.418906 88.0824
lradius 35.9804
lwrist 2.43885
lhand -20.0097 -19.1412
lfingers 7.12502
lthumb 6.33042 10.7443
rfemur -42.611 -1.38679 28.2775
rtibia 40.7742
rfoot -17.8228 1.9514
rtoes -13.7826
lfemur -29.1125 1.26103 -15.8457
ltibia 73.5488
lfoot 2.8234 -6.32429
ltoes -19.1548
107
root 0.266289 16.2833 -21.0043 18.0959 7.21846 -1.79368
lowerback -14.891 -1.05327 0.765581
upperback -4.98562 -1.60624 2.89195
thorax 3.13333 -0.779258 2.32264
lowerneck -5.12959 -1.91428 -0.176849
upperneck 10.1253 -2.47442 -0.811051
head 4.22869 -1.26581 -0.370062
rclavicle 1.12686e-014 -7.95139e-016
rhumerus -49.5382 -34.8721 -56.7924
rradius 16.8621
rwrist 23.4755
rhand -13.5378 -35.3523
rfingers 7.12502
rthumb 12.5747 -64.9538
lclavicle 1.12686e-014 -7.95139e-016
lhumerus -31.8373 0.248968 88.0212
lradius 34.1059
lwrist 1.06626
lhand -19.6367 -19.2083
lfingers 7.12502
lthumb 6.69057 10.666
rfemur -41.5334 -1.24974 28.0777
rtibia 40.3387
rfoot -18.2424 2.07703
rtoes -10.5139
lfemur -30.8672 1.50819 -16.1702
ltibia 74.2509
lfoot 2.2861 -4.96428
ltoes -18.8816
108
root 0.284045 16.3112 -20.8021 18.1192 6.62514 -1.58439
lowerback -14.9631 -0.826839 0.671457
upperback -4.82968 -1.29343 2.71461
thorax 3.3228 -0.625723 2.24234
lowerneck -5.77341 -1.93784 -0.185714
upperneck 10.5634 -2.50219 -0.803322
head 4.51784 -1.27999 -0.381182
rclavicle 1.69464e-014 8.74653e-015
rhumerus -46.1322 -32.6873 -61.0442
rradius 17.8199
rwrist 19.9059
rhand -14.1817 -35.9166
rfingers 7.12502
rthumb 11.9539 -65.5553
lclavicle 1.69464e-014 8.74653e-015
lhumerus -31.7584 0.960013 87.8529
lradius 32.0407
lwrist -0.58817
lhand -19.4146 -18.9673
lfingers 7.12502
lthumb 6.90493 10.9001
rfemur -40.4528 -1.06585 27.7323
rtibia 39.9274
rfoot -18.8571 2.48619
rtoes -8.5466
lfemur -32.4706 2.01578 -16.7887
ltibia 74.7079
lfoot 1.53855 -3.56859
ltoes -17.2955
109
root 0.290132 16.3372 -20.5787 17.6486 6.42941 -1.14984
lowerback -15.0293 -0.825096 0.21424
upperback -4.89037 -1.21559 2.51986
thorax 3.29673 -0.586634 2.30992
lowerneck -4.25742 -1.99136 -0.0851903
upperneck 10.3439 -2.57344 -0.950613
head 4.12905 -1.31695 -0.427705
rclavicle -7.40473e-015 -1.03368e-014
rhumerus -44.227 -30.0162 -64.2774
rradius 18.8293
rwrist 16.2897
rhand -15.4016 -35.5343
rfingers 7.12502
rthumb 10.7774 -65.2379
lclavicle -7.40473e-015 -1.03368e-014
lhumerus -32.8865 1.38892 87.6647
lradius 30.2782
lwrist -1.90549
lhand -18.9228 -19.0761
lfingers 7.12502
lthumb 7.37963 10.7752
rfemur -38.6857 -1.02004 27.2037
rtibia 39.5048
rfoot -19.5997 2.11572
rtoes -9.52077
lfemur -33.2559 2.17986 -17.3972
ltibia 74.8379
lfoot 0.19231 -2.40655
ltoes -15.4069
